<?xml version="1.0" encoding="UTF-8"?>
<svg width="40px" height="40px" viewBox="0 0 40 40" version="1.1" xmlns="http://www.w3.org/2000/svg" xmlns:xlink="http://www.w3.org/1999/xlink">
    <!-- Generator: Sketch 52.6 (67491) - http://www.bohemiancoding.com/sketch -->
    <title>Group 13@2x</title>
    <desc>Created with Sketch.</desc>
    <g id="Symbols" stroke="none" stroke-width="1" fill="none" fill-rule="evenodd">
        <g id="desktop/footer" transform="translate(-122.000000, -340.000000)">
            <g id="Group-13" transform="translate(122.000000, 340.000000)">
                <rect id="Rectangle" stroke="#4A4A4A" x="0.5" y="0.5" width="39" height="39"></rect>
                <path d="M11.4576621,16.8301028 L14.9941422,16.8301028 L14.9941422,29.180654 L11.4576621,29.180654 L11.4576621,16.8301028 Z M13.1357566,15.2852653 L13.1101531,15.2852653 C11.8299793,15.2852653 11,14.3411332 11,13.145543 C11,11.9255055 11.854516,11 13.1602933,11 C14.4650037,11 15.267246,11.9231772 15.2928495,13.1420505 C15.2928495,14.3376407 14.4650037,15.2852653 13.1357566,15.2852653 L13.1357566,15.2852653 Z M29.1443299,29.1818182 L25.1341855,29.1818182 L25.1341855,22.7894271 C25.1341855,21.1165322 24.5069003,19.9756575 23.1275131,19.9756575 C22.0724365,19.9756575 21.4856902,20.7451658 21.2125864,21.4890627 C21.1101725,21.7544907 21.1261747,22.1258571 21.1261747,22.4983876 L21.1261747,29.1818182 L17.1533687,29.1818182 C17.1533687,29.1818182 17.2045757,17.8592184 17.1533687,16.8301028 L21.1261747,16.8301028 L21.1261747,18.7684257 C21.3608732,17.9209188 22.6303789,16.7113587 24.6562539,16.7113587 C27.1696618,16.7113587 29.1443299,18.4890278 29.1443299,22.3132865 L29.1443299,29.1818182 L29.1443299,29.1818182 Z" id="Shape" fill="#4A4A4A"></path>
            </g>
        </g>
    </g>
</svg>